<?xml version="1.0" encoding="utf-8"?>
<!-- Generator: Adobe Illustrator 26.0.1, SVG Export Plug-In . SVG Version: 6.00 Build 0)  -->
<svg version="1.1" id="Layer_1" xmlns="http://www.w3.org/2000/svg" xmlns:xlink="http://www.w3.org/1999/xlink" x="0px" y="0px"
	 viewBox="0 0 1611.5 1222" style="enable-background:new 0 0 1611.5 1222;" xml:space="preserve">
<style type="text/css">
	.st0{fill:#615DF2;}
	.st1{fill:#8985F3;}
	.st2{fill:#0511F3;}
	.st3{fill:#F2F2F2;}
</style>
<g id="Aare" transform="translate(0)">
	<path id="Shape" class="st0" d="M1523,561.7c-15.1,0-29.8-4.5-42.3-12.9c-12.2-8.2-21.7-19.8-27.4-33.3c-10-23.6-7.3-50.6,7-71.8
		c8.2-12.2,19.8-21.7,33.3-27.4c23.6-10,50.6-7.4,71.8,7c12.2,8.2,21.7,19.8,27.4,33.3c10,23.6,7.3,50.6-7,71.8
		c-8.2,12.2-19.8,21.7-33.3,27.4C1543.2,559.7,1533.2,561.7,1523,561.7z M1523,451.5c-18.9,0-34.3,15.4-34.3,34.3
		c0,18.9,15.4,34.3,34.3,34.3c18.9,0,34.3-15.4,34.3-34.3c0-13.8-8.3-26.2-20.9-31.5C1532.2,452.4,1527.6,451.5,1523,451.5z"/>
	<path id="Shape-2" class="st1" d="M1521.6,506.3c-11.4,0-20.6-9.2-20.6-20.6c0-11.4,9.2-20.6,20.6-20.6s20.6,9.2,20.6,20.6
		c0,0,0,0,0,0C1542.2,497,1533,506.3,1521.6,506.3z"/>
	<path id="Shape-3" class="st2" d="M257.1,1187.6c0-11.4,9.2-20.6,20.6-20.6c0,0,0,0,0,0h123.7c11.4,0.1,20.6,9.4,20.5,20.8
		c-0.1,11.3-9.2,20.4-20.5,20.5H277.7C266.3,1208.2,257.1,1199,257.1,1187.6z"/>
	<path id="Shape-4" class="st0" d="M387.7,748.5H250.2c-15.1,0-29.8-4.5-42.3-12.9c-12.2-8.2-21.7-19.8-27.4-33.3
		c-10-23.6-7.3-50.6,7-71.8c8.2-12.2,19.8-21.7,33.3-27.4c9.3-3.9,19.3-6,29.4-6h137.5c15.1,0,29.8,4.5,42.3,12.9
		c12.2,8.2,21.7,19.8,27.4,33.3c10,23.6,7.3,50.6-7,71.8c-8.2,12.2-19.8,21.7-33.3,27.4C407.8,746.5,397.8,748.5,387.7,748.5z
		 M250.2,638.4c-19,0-34.4,15.4-34.4,34.4c0,19,15.4,34.4,34.4,34.4c0,0,0,0,0,0h137.5c19,0,34.4-15.4,34.4-34.4
		s-15.4-34.4-34.4-34.4c0,0,0,0,0,0H250.2z"/>
	<path id="Shape-5" class="st0" d="M96.8,1099.2c0,11.4,9.2,20.6,20.6,20.6h63.9c20.8,0,40.7-8.6,55-23.7
		c14.3,15.2,34.2,23.7,55,23.7h63.3c41.8,0,75.6-33.9,75.6-75.6c0-11.4-9.2-20.6-20.6-20.6c-11.4,0-20.6,9.2-20.6,20.6
		c0,19-15.4,34.4-34.4,34.4l0,0h-63.3c-19,0-34.4-15.4-34.4-34.4V905.3c0-41-33.3-74.3-74.3-74.3c0,0,0,0,0,0v41.3
		c18.2,0,33,14.8,33,33v138.9c0,19-15.4,34.4-34.4,34.4h-63.9C106.1,1078.6,96.8,1087.8,96.8,1099.2
		C96.8,1099.2,96.8,1099.2,96.8,1099.2z"/>
	<path id="Shape-6" class="st3" d="M364.6,933c19,0,34.4-15.4,34.4-34.4s-15.4-34.4-34.4-34.4c-19,0-34.4,15.4-34.4,34.4
		c0,0,0,0,0,0c0,11.4-9.2,20.6-20.7,20.6c-11.4,0-20.6-9.2-20.6-20.6l0,0c0-41.8,33.9-75.7,75.7-75.7s75.7,33.9,75.7,75.7
		c0,41.8-33.9,75.7-75.7,75.7c-11.4,0-20.7-9.2-20.7-20.7S353.2,933,364.6,933z"/>
	<path id="Shape-7" class="st3" d="M316.1,652.5c25.1-0.2,45.2-20.6,45.1-45.7c-0.2-25.1-20.6-45.2-45.7-45.1
		c-13.2,0.1-25.8,6-34.3,16.1c-7.5,8.6-20.5,9.6-29.1,2.1c-8.5-7.4-9.5-20.2-2.3-28.9c16.6-19.4,40.9-30.6,66.4-30.5
		c48,0,87.1,38.7,87.1,86.6s-39.1,86.6-87.1,86.6c-11.4,0.1-20.7-9.1-20.8-20.5c-0.1-11.4,9.1-20.7,20.5-20.8
		C315.9,652.5,316,652.5,316.1,652.5L316.1,652.5z"/>
	<path id="Shape-8" class="st1" d="M644.1,121.6c13.4-13.4,13.4-35.2-0.1-48.6s-35.2-13.4-48.6,0.1c-13.4,13.4-13.4,35.1,0,48.6
		c8.1,8,8.2,21,0.2,29.2c-8,8.1-21,8.2-29.2,0.2c-0.1-0.1-0.2-0.2-0.3-0.3c-29.5-29.6-29.4-77.4,0.1-106.9s77.4-29.4,106.9,0.1
		c29.4,29.5,29.4,77.3,0,106.8c-8,8.1-21,8.3-29.2,0.3c-8.1-8-8.3-21-0.3-29.2C643.9,121.8,644,121.7,644.1,121.6L644.1,121.6z"/>
	<path id="Shape-9" class="st0" d="M567.2,122.2c8.1-8.1,21.1-8.1,29.2,0s8.1,21.1,0,29.2c-8.1,8.1-21.1,8.1-29.2,0
		C559.1,143.3,559.1,130.2,567.2,122.2C567.2,122.2,567.2,122.2,567.2,122.2z"/>
	<path id="Shape-10" class="st0" d="M182.9,872.3c-11.4,0-20.6-9.2-20.6-20.6c0-11.4,9.2-20.6,20.6-20.6c11.4,0,20.6,9.2,20.6,20.6
		c0,0,0,0,0,0C203.5,863.1,194.3,872.3,182.9,872.3z"/>
	<path id="Shape-11" class="st2" d="M89.5,1014.3c-15.1,0-29.8-4.5-42.3-12.9c-12.2-8.2-21.7-19.8-27.4-33.3
		c-10-23.6-7.4-50.6,7-71.8c8.2-12.2,19.8-21.7,33.3-27.4c23.6-10,50.6-7.3,71.8,7c12.2,8.2,21.7,19.8,27.4,33.3
		c10,23.6,7.4,50.6-7,71.8c-8.2,12.2-19.8,21.7-33.3,27.4C109.6,1012.3,99.6,1014.4,89.5,1014.3z M89.5,904.2
		c-18.9,0-34.3,15.4-34.3,34.3c0,18.9,15.4,34.3,34.3,34.3c18.9,0,34.3-15.4,34.3-34.3c0-13.8-8.3-26.2-20.9-31.5
		C98.6,905.1,94.1,904.2,89.5,904.2z"/>
	<path id="Shape-12" class="st3" d="M152.8,760.9c-23.5,0-42.6,19.2-42.5,42.7v79.8c0.1,11.4-9.1,20.6-20.4,20.7
		s-20.6-9.1-20.7-20.4c0-0.1,0-0.2,0-0.3v-79.8c-0.1-46.3,37.4-83.9,83.7-84V760.9z"/>
	<path id="Shape-13" class="st0" d="M89.8,904.1c-11.4,0-20.6-9.2-20.6-20.6c0-11.4,9.2-20.6,20.6-20.6c11.4,0,20.6,9.2,20.6,20.6
		c0,0,0,0,0,0C110.4,894.9,101.2,904.1,89.8,904.1z"/>
	<path id="Shape-14" class="st0" d="M89.2,958.9c-11.4,0-20.6-9.2-20.6-20.6c0-11.4,9.2-20.6,20.6-20.6c11.4,0,20.6,9.2,20.6,20.6
		c0,0,0,0,0,0C109.8,949.7,100.6,958.9,89.2,958.9z"/>
	<path id="Shape-15" class="st2" d="M93.3,546.9c19-0.2,34.3-15.8,34-34.8c-0.2-19-15.8-34.3-34.8-34c0,0-0.1,0-0.1,0
		c-11.4,0.1-20.8-9-20.9-20.4s9-20.8,20.4-20.9c41.8-0.6,76.2,32.8,76.8,74.6c0.6,41.8-32.8,76.2-74.6,76.8c-0.1,0-0.1,0-0.2,0
		c-11.4,0.2-20.8-8.9-21-20.3c-0.2-11.4,8.9-20.8,20.3-21C93.2,546.9,93.3,546.9,93.3,546.9z"/>
	<path id="Shape-16" class="st2" d="M193.8,694.9c-19,0-34.4,15.4-34.4,34.4c0,19,15.4,34.4,34.4,34.4c75.3,0,136.3,61,136.4,136.2
		c0,11.4-9.3,20.7-20.7,20.7s-20.7-9.3-20.7-20.7c0-52.5-42.6-95-95-95c0,0,0,0,0,0c-41.8,0-75.7-33.9-75.7-75.7
		c0-41.8,33.9-75.7,75.7-75.7h0c11.4,0,20.6,9.2,20.6,20.6S205.2,694.9,193.8,694.9C193.8,694.9,193.8,694.9,193.8,694.9z"/>
	<path id="Shape-17" class="st1" d="M499.2,1044.4c0-19-15.4-34.4-34.4-34.4c-19,0-34.4,15.4-34.4,34.4c0,11.4-9.2,20.6-20.7,20.6
		c-11.4,0-20.6-9.2-20.6-20.6c0.2-41.8,34.2-75.6,76-75.4c41.6,0.2,75.3,33.8,75.4,75.4c0,11.4-9.2,20.7-20.7,20.7
		C508.5,1065.1,499.2,1055.8,499.2,1044.4L499.2,1044.4z"/>
	<path id="Shape-18" class="st3" d="M463.3,677.2c0,52.4,42.5,94.9,94.9,94.9c11.4,0.1,20.6,9.4,20.5,20.8
		c-0.1,11.3-9.2,20.4-20.5,20.5c-75.2,0-136.1-61-136.1-136.1c-0.1-11.4,9.1-20.7,20.5-20.8c11.4-0.1,20.7,9.1,20.8,20.5
		C463.3,677,463.3,677.1,463.3,677.2z"/>
	<path id="Shape-19" class="st2" d="M883.4,60.2c-76.1,0-137.8,61.7-137.8,137.8c0,0,0,0,0,0c0,11.4-9.3,20.7-20.7,20.7
		c-11.4,0-20.7-9.3-20.7-20.7c0-98.9,80.2-179.1,179.1-179.1c11.4,0,20.7,9.3,20.7,20.7S894.8,60.2,883.4,60.2z"/>
	<path id="Shape-20" class="st0" d="M1080.2,187.4c0-69.9-56.7-126.6-126.6-126.7c0,0,0,0,0,0c-11.4,0-20.6-9.2-20.6-20.7
		c0-11.4,9.2-20.6,20.6-20.6c92.7,0,167.9,75.2,167.9,168c0,0,0,0,0,0c0,11.4-9.2,20.6-20.6,20.7S1080.2,198.8,1080.2,187.4
		C1080.2,187.4,1080.2,187.4,1080.2,187.4L1080.2,187.4z"/>
	<path id="Shape-21" class="st2" d="M436.2,579.4c0-54.7-44.3-99-99-99c0,0,0,0,0,0c-11.4-0.1-20.6-9.4-20.5-20.8
		c0.1-11.3,9.2-20.4,20.5-20.5c77.5,0,140.2,62.8,140.2,140.3c0.1,11.4-9.1,20.7-20.5,20.8c-11.4,0.1-20.7-9.1-20.8-20.5
		C436.2,579.6,436.2,579.5,436.2,579.4z"/>
	<path id="Shape-22" class="st0" d="M72.7,567.9c-0.1-11.4,9-20.7,20.4-20.9c11.4-0.1,20.7,9,20.9,20.4c0.1,11.4-9,20.7-20.4,20.9
		C82.2,588.4,72.8,579.2,72.7,567.9C72.7,567.9,72.7,567.9,72.7,567.9z"/>
	<path id="Shape-23" class="st0" d="M309.5,920.6c-11.4,0-20.6-9.2-20.6-20.6c0-11.4,9.2-20.6,20.6-20.6c11.4,0,20.6,9.2,20.6,20.6
		c0,0,0,0,0,0C330.2,911.4,320.9,920.6,309.5,920.6z"/>
	<path id="Shape-24" class="st0" d="M409.7,1065c-11.4,0-20.6-9.2-20.6-20.6c0-11.4,9.2-20.6,20.6-20.6c11.4,0,20.6,9.2,20.6,20.6
		c0,0,0,0,0,0C430.3,1055.8,421.1,1065,409.7,1065z"/>
	<path id="Shape-25" class="st0" d="M116.9,1119.8c-11.4,0-20.6-9.2-20.6-20.6c0-11.4,9.2-20.6,20.6-20.6c11.4,0,20.6,9.2,20.6,20.6
		c0,0,0,0,0,0C137.5,1110.6,128.3,1119.8,116.9,1119.8z"/>
	<path id="Shape-26" class="st1" d="M309.5,975.4c-11.4,0-20.6-9.2-20.6-20.6c0-11.4,9.2-20.6,20.6-20.6c11.4,0,20.6,9.2,20.6,20.6
		c0,0,0,0,0,0C330.2,966.2,320.9,975.4,309.5,975.4z"/>
	<path id="Shape-27" class="st1" d="M309.5,1030.8c-11.4,0-20.6-9.2-20.6-20.6c0-11.4,9.2-20.6,20.6-20.6c11.4,0,20.6,9.2,20.6,20.6
		c0,0,0,0,0,0C330.2,1021.6,320.9,1030.8,309.5,1030.8z"/>
	<path id="Shape-28" class="st0" d="M465.1,1072.1c-11.4,0-20.6-9.2-20.6-20.6c0-11.4,9.2-20.6,20.6-20.6c11.4,0,20.6,9.2,20.6,20.6
		c0,0,0,0,0,0C485.7,1062.9,476.5,1072.1,465.1,1072.1z"/>
	<path id="Shape-29" class="st0" d="M465.1,1126.9c-11.4,0-20.6-9.2-20.6-20.6c0-11.4,9.2-20.6,20.6-20.6c11.4,0,20.6,9.2,20.6,20.6
		c0,0,0,0,0,0C485.7,1117.7,476.5,1126.9,465.1,1126.9z"/>
	<path id="Shape-30" class="st0" d="M442.7,697.8c-11.4,0-20.6-9.2-20.6-20.6c0-11.4,9.2-20.6,20.6-20.6c11.4,0,20.6,9.2,20.6,20.6
		c0,0,0,0,0,0C463.3,688.6,454.1,697.8,442.7,697.8z"/>
	<path id="Shape-31" class="st0" d="M195.2,694.9c-11.4,0-20.6-9.2-20.6-20.6c0-11.4,9.2-20.6,20.6-20.6c11.4,0,20.6,9.2,20.6,20.6
		c0,0,0,0,0,0C215.9,685.7,206.6,694.9,195.2,694.9z"/>
	<path id="Shape-32" class="st2" d="M557.3,746.2c-15.1,0-29.8-4.5-42.3-12.9c-12.2-8.2-21.7-19.8-27.4-33.3
		c-10-23.6-7.4-50.6,7-71.8c8.2-12.2,19.8-21.7,33.3-27.4c23.6-10,50.6-7.3,71.8,7c12.2,8.2,21.7,19.8,27.4,33.3
		c10,23.6,7.4,50.6-7,71.8c-8.2,12.2-19.8,21.7-33.3,27.4C577.5,744.2,567.4,746.2,557.3,746.2z M557.3,636
		c-18.9,0-34.3,15.4-34.3,34.3s15.4,34.3,34.3,34.3c18.9,0,34.3-15.4,34.3-34.3c0-13.8-8.3-26.2-20.9-31.5
		C566.5,636.9,561.9,636,557.3,636z"/>
	<path id="Shape-33" class="st0" d="M649.5,257.6c0,11.4,9.3,20.6,20.7,20.6c0,0,0,0,0,0c19,0,34.4,15.4,34.4,34.4c0,0,0,0,0,0
		v137.5c0,19-15.4,34.4-34.4,34.4c0,0,0,0,0,0c-11.4-0.1-20.7,9.1-20.8,20.5c-0.1,11.4,9.1,20.7,20.5,20.8c0.1,0,0.2,0,0.3,0
		c20.8,0,40.8-8.6,55.1-23.7c14.3,15.2,34.2,23.8,55.1,23.7h63.3c41.8,0,75.7-33.8,75.7-75.6c0,0,0,0,0,0
		c-0.1-11.4-9.4-20.6-20.8-20.5c-11.3,0.1-20.4,9.2-20.5,20.5c0,19-15.4,34.4-34.4,34.4c0,0,0,0,0,0h-63.3
		c-19,0-34.4-15.4-34.4-34.4c0,0,0,0,0,0V312.6c0-41.8-33.9-75.7-75.7-75.6C658.8,236.9,649.5,246.2,649.5,257.6
		C649.5,257.6,649.5,257.6,649.5,257.6z"/>
	<path id="Shape-34" class="st3" d="M690.8,505.2c0-11.4-9.2-20.6-20.6-20.6l0,0c-19,0-34.4-15.4-34.4-34.4c0,0,0,0,0,0V312.6
		c0-19,15.4-34.4,34.4-34.4c0,0,0,0,0,0c11.4,0,20.6-9.2,20.6-20.6c0-11.4-9.2-20.6-20.6-20.6c0,0,0,0,0,0
		c-41.8,0-75.7,33.9-75.7,75.7c0,0,0,0,0,0v137.6c0,1.7,0.1,3.4,0.2,5c-35.3,10.8-59.4,43.4-59.4,80.3v79.8
		c0,11.4,9.2,20.6,20.6,20.6s20.7-9.2,20.7-20.6v-79.8c0-19.5,13.2-36.4,32-41.3c14.2,19.9,37.2,31.7,61.6,31.7
		C681.5,525.9,690.8,516.6,690.8,505.2C690.8,505.2,690.8,505.2,690.8,505.2z"/>
	<path id="Shape-35" class="st1" d="M669.9,525.8c-19,0-34.4,15.4-34.4,34.4c0,19,15.4,34.4,34.4,34.4c19,0,34.4-15.4,34.4-34.4
		c0,0,0,0,0,0c0-11.4,9.2-20.6,20.7-20.6s20.7,9.2,20.7,20.6c0,41.8-33.9,75.7-75.7,75.7c-41.8,0-75.7-33.9-75.7-75.7
		c0-41.8,33.9-75.7,75.7-75.7c11.4,0,20.7,9.2,20.7,20.7S681.3,525.8,669.9,525.8z"/>
	<path id="Shape-36" class="st3" d="M1166.9,664.5c0-19,15.4-34.4,34.4-34.4c19,0,34.4,15.4,34.4,34.4c0,19-15.4,34.4-34.4,34.4
		c-11.4,0-20.7,9.2-20.7,20.7s9.2,20.7,20.7,20.7c41.8,0,75.7-33.9,75.8-75.7s-33.9-75.7-75.7-75.8s-75.7,33.9-75.8,75.7
		c0,0,0,0,0,0c0,11.4,9.2,20.6,20.7,20.6C1157.7,685.2,1166.9,675.9,1166.9,664.5L1166.9,664.5z"/>
	<path id="Shape-37" class="st0" d="M670.1,525.7c-11.4,0-20.6-9.2-20.6-20.6c0-11.4,9.2-20.6,20.6-20.6c11.4,0,20.6,9.2,20.6,20.6
		c0,0,0,0,0,0C690.8,516.5,681.5,525.7,670.1,525.7L670.1,525.7z"/>
	<path id="Shape-38" class="st0" d="M670.1,278.2c-11.4,0-20.6-9.2-20.6-20.6c0-11.4,9.2-20.6,20.6-20.6c11.4,0,20.6,9.2,20.6,20.6
		c0,0,0,0,0,0C690.8,269,681.5,278.2,670.1,278.2L670.1,278.2z"/>
	<path id="Shape-39" class="st0" d="M555.8,636c-11.4,0-20.6-9.2-20.6-20.6c0-11.4,9.2-20.6,20.6-20.6c11.4,0,20.6,9.2,20.6,20.6
		c0,0,0,0,0,0C576.5,626.7,567.2,636,555.8,636z"/>
	<path id="Shape-40" class="st1" d="M557,690.8c-11.4,0-20.6-9.2-20.6-20.6c0-11.4,9.2-20.6,20.6-20.6c11.4,0,20.6,9.2,20.6,20.6
		c0,0,0,0,0,0C577.6,681.5,568.4,690.8,557,690.8z"/>
	<path id="Shape-41" class="st0" d="M1347.3,562.9h-137.7c-15.1,0-29.8-4.5-42.3-12.9c-12.2-8.2-21.7-19.8-27.4-33.3
		c-10-23.6-7.3-50.6,7-71.8c8.2-12.2,19.8-21.7,33.3-27.4c9.3-3.9,19.4-6,29.5-5.9h44.1v-43.3c0-15.1,4.5-29.8,12.9-42.3
		c8.2-12.2,19.8-21.7,33.3-27.4c9.3-3.9,19.4-6,29.5-5.9h137.7c19,0,34.4-15.3,34.4-34.3c0,0,0,0,0-0.1v-63.3
		c0-19-15.4-34.4-34.4-34.4c0,0,0,0,0,0c-11.4,0-20.6-9.2-20.6-20.6c0-8.3,5-15.8,12.6-19c2.5-1.1,5.3-1.6,8-1.6
		c15.1,0,29.8,4.5,42.3,12.9c12.2,8.2,21.7,19.8,27.4,33.3c3.9,9.3,6,19.3,5.9,29.5V258c0,5.3-0.6,10.6-1.7,15.8
		c-2.1,10-6.3,19.5-12.2,27.9c-2.9,4.1-6.2,7.9-9.9,11.4c7.4,6.9,13.3,15.3,17.4,24.6c2.1,4.7,3.7,9.6,4.7,14.7
		c1.1,5.2,1.7,10.5,1.7,15.8v61.9c0,11.4-9.2,20.7-20.6,20.7c-11.4,0-20.7-9.2-20.7-20.6c0,0,0,0,0,0v-61.9
		c0-19-15.4-34.4-34.4-34.4c0,0,0,0,0,0h-137.7c-19,0-34.4,15.4-34.4,34.3c0,0,0,0,0,0.1v43.3h52.3c15.1,0,29.8,4.5,42.3,12.9
		c12.2,8.2,21.7,19.8,27.4,33.3c10,23.6,7.4,50.6-7,71.8c-8.2,12.2-19.8,21.7-33.3,27.4C1367.4,560.9,1357.4,562.9,1347.3,562.9z
		 M1209.6,452.8c-19,0-34.4,15.4-34.4,34.4s15.4,34.4,34.4,34.4h137.7c19,0,34.4-15.4,34.4-34.4s-15.4-34.4-34.4-34.4H1209.6z"/>
	<path id="Shape-42" class="st2" d="M1113.9,288.9c23.2,9.3,49.7-1.9,59-25.2c9.3-23.2-1.9-49.7-25.2-59c-12.3-5-26.2-4.3-38,1.9
		c-10.1,5.2-22.6,1.3-27.8-8.8c-5.2-10.1-1.3-22.6,8.8-27.8l0,0c22.7-11.7,49.4-12.9,73-3.3c44.4,18.1,66,68.6,47.9,113
		c-18.1,44.4-68.9,65.5-113.4,47.4c-10.5-4.3-15.6-16.3-11.3-26.9C1091.3,289.7,1103.4,284.6,1113.9,288.9z"/>
	<path id="Shape-43" class="st2" d="M1422.6,491.6c0,52.4,42.5,94.9,94.9,94.9c0,0,0,0,0,0c11.4,0.1,20.6,9.4,20.5,20.8
		c-0.1,11.3-9.2,20.4-20.5,20.5c-75.2,0-136.1-61-136.1-136.1c0,0,0,0,0,0c-0.1-11.4,9.1-20.7,20.5-20.8s20.7,9.1,20.8,20.5
		C1422.6,491.4,1422.6,491.5,1422.6,491.6z"/>
	<path id="Shape-44" class="st0" d="M1402,511c-11.4,0-20.6-9.2-20.6-20.6c0-11.4,9.2-20.6,20.6-20.6s20.6,9.2,20.6,20.6
		c0,0,0,0,0,0C1422.6,501.8,1413.3,511,1402,511z"/>
	<path id="Shape-45" class="st2" d="M649.5,408.5c0-19-15.4-34.4-34.4-34.4c-19,0-34.4,15.4-34.4,34.4c0,11.4-9.2,20.6-20.7,20.6
		c-11.4,0-20.6-9.2-20.6-20.6c0.2-41.8,34.2-75.6,76-75.4c41.6,0.2,75.3,33.8,75.4,75.4c0,11.4-9.2,20.7-20.7,20.7
		S649.5,419.9,649.5,408.5L649.5,408.5z"/>
	<path id="Shape-46" class="st1" d="M988.3,451.5c0-19-15.4-34.4-34.4-34.4c-19,0-34.4,15.4-34.4,34.4c0,11.4-9.2,20.6-20.7,20.6
		c-11.4,0-20.6-9.2-20.6-20.6c0.2-41.8,34.2-75.6,76-75.4c41.6,0.2,75.3,33.8,75.4,75.4c0,11.4-9.2,20.7-20.7,20.7
		S988.3,462.9,988.3,451.5L988.3,451.5z"/>
	<path id="Shape-47" class="st3" d="M469.2,1165.8c52.4,0,94.9-42.5,94.9-94.9c-0.1-11.4,9.1-20.7,20.5-20.8
		c11.4-0.1,20.7,9.1,20.8,20.5c0,0.1,0,0.2,0,0.3c0,75.2-60.9,136.1-136.1,136.1c-11.4-0.1-20.6-9.4-20.5-20.8
		C448.8,1175,457.9,1165.9,469.2,1165.8z"/>
	<path id="Shape-48" class="st0" d="M678.4,678.3c60.8,0,110.1-49.3,110.1-110.1c0,0,0,0,0,0c0-11.4,9.2-20.6,20.6-20.6
		c11.4,0,20.6,9.2,20.6,20.6c0,83.6-67.8,151.4-151.4,151.4c-11.4-0.2-20.5-9.5-20.4-20.9C658.2,687.5,667.2,678.5,678.4,678.3z"/>
	<path id="Shape-49" class="st0" d="M670.1,429.1c-11.4,0-20.6-9.2-20.6-20.6c0-11.4,9.2-20.6,20.6-20.6c11.4,0,20.6,9.2,20.6,20.6
		c0,0,0,0,0,0C690.8,419.8,681.5,429.1,670.1,429.1L670.1,429.1z"/>
	<path id="Shape-50" class="st0" d="M814.5,298.8c-11.4,0-20.6-9.2-20.6-20.6c0-11.4,9.2-20.6,20.6-20.6c11.4,0,20.6,9.2,20.6,20.6
		c0,0,0,0,0,0C835.1,289.6,825.9,298.8,814.5,298.8z"/>
	<path id="Shape-51" class="st0" d="M1128,720.8c0,11.4,9.2,20.6,20.6,20.6c11.4,0,20.6-9.2,20.6-20.6c0-11.4-9.2-20.6-20.6-20.6
		C1137.2,700.2,1128,709.4,1128,720.8C1128,720.8,1128,720.8,1128,720.8z"/>
	<path id="Shape-52" class="st0" d="M1073.2,720.8c0,11.4,9.2,20.6,20.6,20.6c11.4,0,20.6-9.2,20.6-20.6c0-11.4-9.2-20.6-20.6-20.6
		C1082.4,700.2,1073.2,709.4,1073.2,720.8C1073.2,720.8,1073.2,720.8,1073.2,720.8z"/>
	<path id="Shape-53" class="st0" d="M1477.7,1207.1c-15.1,0-29.8-4.5-42.3-12.9c-12.2-8.2-21.7-19.8-27.4-33.3
		c-3.9-9.3-6-19.3-5.9-29.4V993.9c0-15.1,4.5-29.8,12.9-42.3c8.2-12.2,19.8-21.7,33.3-27.4c23.6-10,50.6-7.3,71.8,7
		c12.2,8.2,21.7,19.8,27.4,33.3c3.9,9.3,6,19.3,5.9,29.4v137.5c0,15.1-4.5,29.8-12.9,42.3c-8.2,12.2-19.8,21.7-33.3,27.4
		C1497.8,1205.1,1487.8,1207.1,1477.7,1207.1z M1477.7,959.5c-19,0-34.4,15.3-34.4,34.3c0,0,0,0.1,0,0.1v137.5
		c-0.1,19,15.2,34.5,34.2,34.6c19,0.1,34.5-15.2,34.6-34.2c0-0.1,0-0.2,0-0.4V993.9C1512.1,974.9,1496.7,959.5,1477.7,959.5
		C1477.7,959.5,1477.7,959.5,1477.7,959.5L1477.7,959.5z"/>
	<path id="Shape-54" class="st3" d="M1498.7,938.9c0.1-41.8,34-75.6,75.8-75.5c0,0,0,0,0,0c11.4,0,20.6-9.2,20.6-20.6
		c0-11.4-9.2-20.6-20.6-20.6c0,0,0,0,0,0c-64.7,0-117.2,52.3-117.2,116.7c0.1,11.4,9.4,20.6,20.8,20.5
		C1489.5,959.4,1498.6,950.2,1498.7,938.9z"/>
	<path id="Shape-55" class="st0" d="M1498.6,938.9c0-11.4-9.2-20.6-20.6-20.6s-20.6,9.2-20.6,20.6c0,11.4,9.2,20.6,20.6,20.6
		C1489.4,959.5,1498.6,950.3,1498.6,938.9z"/>
	<path id="Shape-56" class="st2" d="M1293.2,1207.1c-15.1,0-29.8-4.5-42.3-12.9c-12.2-8.2-21.7-19.8-27.4-33.3
		c-10-23.6-7.4-50.6,7-71.8c8.2-12.2,19.8-21.7,33.3-27.4c23.6-10,50.6-7.3,71.8,7c12.2,8.2,21.7,19.8,27.4,33.3
		c10,23.6,7.4,50.6-7,71.8c-8.2,12.2-19.8,21.7-33.3,27.4C1313.4,1205.1,1303.4,1207.1,1293.2,1207.1z M1293.2,1096.9
		c-18.9,0-34.3,15.4-34.3,34.3s15.4,34.3,34.3,34.3s34.3-15.4,34.3-34.3c0-13.8-8.3-26.2-20.9-31.5
		C1302.4,1097.8,1297.8,1096.9,1293.2,1096.9z"/>
	<path id="Shape-57" class="st3" d="M880.5,997.8c11.4,0,20.6,9.3,20.6,20.7c0,19,15.4,34.4,34.4,34.5h137.6
		c19,0,34.4-15.5,34.4-34.5c0-11.4,9.2-20.6,20.6-20.6s20.6,9.2,20.6,20.6c0,0,0,0,0,0c0,24.4-11.7,47.4-31.5,61.6
		c4.8,17.8,21.2,30.8,41.2,30.8h79.8c11.4,0,20.7,9.3,20.7,20.7c0,11.4-9.3,20.7-20.7,20.7h-79.8c-37.3,0-69.4-24-80.1-58.1
		c-1.7,0.1-3.4,0.2-5.2,0.2H935.5c-41.8,0-75.7-34-75.7-75.8c0,0,0,0,0,0C859.9,1007.1,869.1,997.9,880.5,997.8z"/>
	<path id="Shape-58" class="st0" d="M711.1,1040.3c-15.1,0-29.8-4.5-42.3-12.9c-12.2-8.2-21.7-19.8-27.4-33.3
		c-3.9-9.3-6-19.3-5.9-29.4V827.1c0-15.1,4.5-29.8,12.9-42.3c8.2-12.2,19.8-21.7,33.3-27.4c23.6-10,50.6-7.3,71.8,7
		c12.2,8.2,21.7,19.8,27.4,33.3c3.9,9.3,6,19.3,5.9,29.4v137.5c0,15.1-4.5,29.8-12.9,42.3c-8.2,12.2-19.8,21.7-33.3,27.4
		C731.2,1038.3,721.2,1040.3,711.1,1040.3z M711.1,792.7c-19,0-34.4,15.3-34.4,34.3c0,0,0,0.1,0,0.1v137.5
		c-0.1,19,15.2,34.5,34.2,34.6c19,0.1,34.5-15.2,34.6-34.2c0-0.1,0-0.2,0-0.4V827.1C745.5,808.1,730.1,792.7,711.1,792.7
		C711.1,792.7,711.1,792.7,711.1,792.7L711.1,792.7z"/>
	<path id="Shape-59" class="st0" d="M880.5,1039.1c11.4,0,20.6-9.3,20.6-20.7c0,0,0,0,0,0c0-19,15.4-34.4,34.4-34.4c0,0,0,0,0,0
		H1073c19,0,34.4,15.4,34.4,34.4c0,0,0,0,0,0c-0.1,11.4,9.1,20.7,20.5,20.8c11.4,0.1,20.7-9.1,20.8-20.5c0-0.1,0-0.2,0-0.3
		c0-20.8-8.6-40.8-23.7-55.1c15.2-14.3,23.7-34.2,23.7-55.1v-63.4c0-41.8-33.8-75.7-75.6-75.7c0,0,0,0,0,0
		c-11.4,0-20.7,9.3-20.7,20.7c0,11.4,9.2,20.7,20.7,20.7c19,0,34.4,15.4,34.4,34.4c0,0,0,0,0,0v63.4c0,19-15.4,34.4-34.4,34.4
		c0,0,0,0,0,0H935.5c-41.8,0-75.7,33.9-75.6,75.7c0,0,0,0,0,0C859.9,1029.8,869.1,1039.1,880.5,1039.1
		C880.5,1039.1,880.5,1039.1,880.5,1039.1z"/>
	<path id="Shape-60" class="st1" d="M1148.6,1018.2c0,19,15.4,34.4,34.4,34.4s34.4-15.4,34.4-34.4c0-19-15.4-34.4-34.4-34.4
		c-11.4,0-20.7-9.2-20.7-20.7c0-11.4,9.2-20.7,20.7-20.7l0,0c41.8,0,75.7,33.9,75.8,75.7c0,41.8-33.9,75.7-75.7,75.8
		c-41.8,0-75.7-33.9-75.8-75.7c0,0,0,0,0,0c0-11.4,9.2-20.7,20.7-20.7C1139.4,997.5,1148.6,1006.8,1148.6,1018.2z"/>
	<path id="Shape-61" class="st1" d="M973,849c0-19-15.4-34.4-34.4-34.4c-19,0-34.4,15.4-34.4,34.4c0,19,15.4,34.4,34.4,34.4
		c11.4,0,20.7,9.2,20.7,20.7s-9.2,20.7-20.7,20.7c-41.8,0-75.7-33.9-75.8-75.7c0-41.8,33.9-75.7,75.7-75.8
		c41.8,0,75.7,33.9,75.8,75.7c0,0,0,0,0,0c0,11.4-9.2,20.6-20.6,20.6C982.2,869.7,973,860.4,973,849L973,849L973,849z"/>
	<path id="Shape-62" class="st0" d="M690.8,960.6c-0.2-25.1-20.7-45.2-45.7-45c-25.1,0.2-45.2,20.7-45,45.7
		c0.1,13.2,6,25.7,16.1,34.3c8.7,7.4,9.7,20.4,2.3,29.1c-7.4,8.7-20.4,9.7-29.1,2.3c-19.4-16.6-30.6-40.9-30.5-66.4
		c0-48,38.7-87.2,86.6-87.2c47.9,0,86.6,39.1,86.6,87.2c0.1,11.4-9.1,20.7-20.5,20.8c-11.4,0.1-20.7-9.1-20.8-20.5
		C690.8,960.8,690.8,960.7,690.8,960.6z"/>
	<path id="Shape-63" class="st0" d="M1148.6,1017.9c0,11.4-9.2,20.6-20.6,20.6s-20.6-9.2-20.6-20.6c0-11.4,9.2-20.6,20.6-20.6
		C1139.4,997.3,1148.6,1006.5,1148.6,1017.9z"/>
	<path id="Shape-64" class="st0" d="M901.1,1018.5c0,11.4-9.2,20.6-20.6,20.6s-20.6-9.2-20.6-20.6c0-11.4,9.2-20.6,20.6-20.6
		C891.9,997.8,901.1,1007.1,901.1,1018.5z"/>
	<path id="Shape-65" class="st0" d="M1258.8,1131.6c0,11.4-9.2,20.6-20.6,20.6c-11.4,0-20.6-9.2-20.6-20.6
		c0-11.4,9.2-20.6,20.6-20.6C1249.5,1111,1258.8,1120.2,1258.8,1131.6z"/>
	<path id="Shape-66" class="st0" d="M1314.2,1131c0,11.4-9.2,20.6-20.6,20.6c-11.4,0-20.6-9.2-20.6-20.6c0-11.4,9.2-20.6,20.6-20.6
		C1304.9,1110.4,1314.2,1119.7,1314.2,1131z"/>
	<path id="Shape-67" class="st2" d="M1032,1039.1c-19,0-34.4,15.4-34.4,34.4c0,19,15.4,34.4,34.4,34.4c11.4,0.1,20.6,9.4,20.5,20.8
		c-0.1,11.3-9.2,20.4-20.5,20.5c-41.8,0-75.7-33.9-75.7-75.7c0-41.8,33.9-75.7,75.7-75.7c11.4,0.1,20.6,9.4,20.5,20.8
		C1052.4,1029.9,1043.3,1039.1,1032,1039.1z"/>
	<path id="Shape-68" class="st2" d="M1074.3,670.1c-26.2,0-48.2,21.8-48.2,49.5s22,49.5,48.2,49.5c11.4-0.1,20.7,9.1,20.8,20.5
		c0.1,11.4-9.1,20.7-20.5,20.8c-0.1,0-0.2,0-0.3,0c-49.8,0-89.5-41-89.5-90.8s39.7-90.8,89.5-90.8c11.4-0.1,20.7,9.1,20.8,20.5
		c0.1,11.4-9.1,20.7-20.5,20.8C1074.5,670.1,1074.4,670.1,1074.3,670.1z"/>
	<path id="Shape-69" class="st2" d="M938.2,924.8c-52.5,0-95,42.6-94.9,95.1c0,0,0,0,0,0c0,41.8-33.9,75.7-75.7,75.7
		c-41.8,0-75.7-33.9-75.7-75.7c0-11.4,9.2-20.6,20.6-20.6c11.4,0,20.6,9.2,20.6,20.6l0,0c-0.3,19,14.9,34.6,33.9,34.9
		c19,0.3,34.6-14.9,34.9-33.9c0-0.3,0-0.7,0-1c0-75.3,61-136.4,136.2-136.4c11.4,0,20.7,9.3,20.7,20.7S949.6,924.8,938.2,924.8z"/>
	<path id="Shape-70" class="st3" d="M715.5,751.5c86.6,0,156.7-70.2,156.7-156.8c-0.1-11.4,9.1-20.7,20.5-20.8
		c11.4-0.1,20.7,9.1,20.8,20.5c0,0.1,0,0.2,0,0.3c0,109.4-88.6,198-198,198c-11.4-0.1-20.6-9.4-20.5-20.8
		C695.1,760.7,704.2,751.6,715.5,751.5z"/>
	<path id="Shape-71" class="st3" d="M1323.5,59c-73.8,0-133.6,59.9-133.6,133.7c0,0,0,0,0,0c0,11.4-9.2,20.7-20.7,20.7
		c-11.4,0-20.7-9.2-20.7-20.7c0,0,0,0,0,0c0-96.7,78.3-175,175-175c11.4,0,20.7,9.3,20.7,20.7S1335,59,1323.5,59z"/>
	<path id="Shape-72" class="st0" d="M1287.6,1003.1c0-52.4-42.5-94.9-94.9-94.9c0,0,0,0,0,0c-11.4-0.1-20.6-9.4-20.5-20.8
		c0.1-11.3,9.2-20.4,20.5-20.5c75.2,0,136.1,61,136.1,136.1c0.1,11.4-9.1,20.7-20.5,20.8c-11.4,0.1-20.7-9.1-20.8-20.5
		C1287.6,1003.3,1287.6,1003.2,1287.6,1003.1L1287.6,1003.1z"/>
	<path id="Shape-73" class="st0" d="M56.2,1070.9c0,52.4,42.5,94.9,94.9,94.9c11.4,0.1,20.6,9.4,20.5,20.8
		c-0.1,11.3-9.2,20.4-20.5,20.5c-75.2,0-136.1-61-136.1-136.1c-0.1-11.4,9.1-20.7,20.5-20.8c11.4-0.1,20.7,9.1,20.8,20.5
		C56.2,1070.7,56.2,1070.8,56.2,1070.9z"/>
	<path id="Shape-74" class="st2" d="M600.1,861.6c-34.9,0-63.1,28.3-63.1,63.2c0,11.4-9.2,20.6-20.6,20.6
		c-11.4,0-20.6-9.2-20.6-20.6c0-57.6,46.7-104.3,104.3-104.4c0,0,0,0,0,0c11.4,0.2,20.4,9.6,20.2,21
		C620.1,852.5,611.1,861.4,600.1,861.6z"/>
	<path id="Shape-75" class="st0" d="M1052.5,1018.5c0,11.4-9.2,20.6-20.6,20.6s-20.6-9.2-20.6-20.6c0-11.4,9.2-20.6,20.6-20.6
		C1043.3,997.8,1052.6,1007.1,1052.5,1018.5z"/>
	<path id="Shape-76" class="st0" d="M959.5,904.1c0,11.4-9.2,20.6-20.6,20.6c-11.4,0-20.6-9.2-20.6-20.6c0-11.4,9.2-20.6,20.6-20.6
		C950.2,883.5,959.5,892.7,959.5,904.1z"/>
	<path id="Shape-77" class="st0" d="M958.9,735c0,11.4-9.2,20.6-20.6,20.6c-11.4,0-20.6-9.2-20.6-20.6c0-11.4,9.2-20.6,20.6-20.6
		C949.6,714.3,958.9,723.6,958.9,735z"/>
	<path id="Shape-78" class="st0" d="M958.9,679.6c0,11.4-9.2,20.6-20.6,20.6c-11.4,0-20.6-9.2-20.6-20.6c0-11.4,9.2-20.6,20.6-20.6
		C949.6,658.9,958.9,668.2,958.9,679.6z"/>
	<path id="Shape-79" class="st0" d="M919.4,452.1c0,11.4-9.2,20.6-20.6,20.6c-11.4,0-20.6-9.2-20.6-20.6c0-11.4,9.2-20.6,20.6-20.6
		C910.2,431.4,919.4,440.7,919.4,452.1z"/>
	<path id="Shape-80" class="st0" d="M1095,789.8c0,11.4-9.2,20.6-20.6,20.6c-11.4,0-20.6-9.2-20.6-20.6c0-11.4,9.2-20.6,20.6-20.6
		C1085.7,769.2,1095,778.4,1095,789.8z"/>
	<path id="Shape-81" class="st2" d="M447.1,173.3c-15.1,0-29.8-4.5-42.3-12.9c-12.2-8.2-21.7-19.8-27.4-33.3
		c-10-23.6-7.4-50.6,7-71.8c8.2-12.2,19.8-21.7,33.3-27.4c23.6-10,50.6-7.3,71.8,7c12.2,8.2,21.7,19.8,27.4,33.3
		c10,23.6,7.4,50.6-7,71.8c-8.2,12.2-19.8,21.7-33.3,27.4C467.3,171.3,457.3,173.3,447.1,173.3z M447.1,63.1
		c-18.9,0-34.3,15.4-34.3,34.3s15.4,34.3,34.3,34.3c18.9,0,34.3-15.4,34.3-34.3c0-13.8-8.3-26.2-20.9-31.5
		C456.3,64,451.7,63.1,447.1,63.1z"/>
	<path id="Shape-82" class="st0" d="M34.4,189.8c11.4,0,20.6,9.3,20.6,20.7c0,19,15.4,34.4,34.4,34.4h137.5
		c19,0,34.4-15.4,34.4-34.4c-0.1-11.4,9.1-20.7,20.5-20.8c11.4-0.1,20.7,9.1,20.8,20.5c0,0.1,0,0.2,0,0.3
		c0,41.8-33.8,75.7-75.6,75.7c0,0,0,0,0,0H92.1c-19,0-34.4,15.4-34.4,34.4v137.7c0,19,15.4,34.4,34.4,34.4
		c11.4,0.2,20.5,9.5,20.4,20.9c-0.2,11.2-9.2,20.2-20.4,20.4c-41.8,0-75.6-33.9-75.6-75.7V320.6c0-20.2,8-39.6,22.4-53.8
		c-16-14.4-25.2-34.9-25.1-56.4C13.7,199,23,189.8,34.4,189.8z"/>
	<path id="Shape-83" class="st3" d="M232.3,135.2c11.3-34.6,43.5-58,79.9-58H392c11.4-0.1,20.6,9.1,20.7,20.4
		c0.1,11.4-9.1,20.6-20.4,20.7c-0.1,0-0.2,0-0.3,0h-79.8c-19,0-35.8,12.6-41,30.9c19.7,14.2,31.3,36.9,31.3,61.2
		c-0.1,11.4-9.4,20.6-20.8,20.5c-11.3-0.1-20.4-9.2-20.5-20.5c0-19-15.4-34.3-34.4-34.3c0,0,0,0,0,0H89.4c-19,0-34.4,15.3-34.4,34.3
		c0,0,0,0,0,0c-0.1,11.4-9.4,20.6-20.8,20.5c-11.3-0.1-20.4-9.2-20.5-20.5c0-41.7,33.9-75.5,75.6-75.5c0,0,0,0,0,0h137.5
		C228.7,135,230.5,135,232.3,135.2L232.3,135.2z"/>
	<path id="Shape-84" class="st1" d="M302.5,210.7c0-19,15.4-34.4,34.4-34.4c19,0,34.4,15.4,34.4,34.4c0,19-15.4,34.4-34.4,34.4
		c-11.4,0-20.7,9.2-20.7,20.7c0,11.4,9.2,20.7,20.7,20.7c41.8,0,75.7-33.9,75.8-75.7S378.8,135,337,135s-75.7,33.9-75.8,75.7
		c0,0,0,0,0,0c0,11.4,9.2,20.6,20.6,20.6C293.3,231.4,302.5,222.1,302.5,210.7L302.5,210.7z"/>
	<path id="Shape-85" class="st0" d="M302.5,211c0-11.4-9.2-20.6-20.6-20.6c-11.4,0-20.6,9.2-20.6,20.6c0,11.4,9.2,20.6,20.6,20.6
		C293.2,231.6,302.5,222.4,302.5,211z"/>
	<path id="Shape-86" class="st1" d="M55,210.4c0-11.4-9.2-20.6-20.6-20.6s-20.6,9.2-20.6,20.6c0,11.4,9.2,20.6,20.6,20.6
		C45.8,231,55,221.8,55,210.4z"/>
	<path id="Shape-87" class="st1" d="M281.9,336c0-11.4-9.2-20.6-20.6-20.6c-11.4,0-20.6,9.2-20.6,20.6c0,11.4,9.2,20.6,20.6,20.6
		C272.6,356.6,281.9,347.3,281.9,336z"/>
	<path id="Shape-88" class="st1" d="M281.9,390.8c0-11.4-9.2-20.6-20.6-20.6c-11.4,0-20.6,9.2-20.6,20.6c0,11.4,9.2,20.6,20.6,20.6
		C272.6,411.4,281.9,402.2,281.9,390.8z"/>
	<path id="Shape-89" class="st1" d="M461,414.3c0-11.4-9.2-20.6-20.6-20.6c-11.4,0-20.6,9.2-20.6,20.6c0,11.4,9.2,20.6,20.6,20.6
		C451.7,435,461,425.7,461,414.3z"/>
	<path id="Shape-90" class="st1" d="M517.5,411.4c0-11.4-9.2-20.6-20.6-20.6c-11.4,0-20.6,9.2-20.6,20.6c0,11.4,9.2,20.6,20.6,20.6
		C508.3,432,517.5,422.8,517.5,411.4z"/>
	<path id="Shape-91" class="st1" d="M517.5,469.2c0-11.4-9.2-20.6-20.6-20.6c-11.4,0-20.6,9.2-20.6,20.6c0,11.4,9.2,20.6,20.6,20.6
		C508.3,489.8,517.5,480.5,517.5,469.2z"/>
	<path id="Shape-92" class="st1" d="M236.5,1187.6c0-11.4-9.2-20.6-20.6-20.6c-11.4,0-20.6,9.2-20.6,20.6c0,11.4,9.2,20.6,20.6,20.6
		C227.3,1208.2,236.5,1199,236.5,1187.6z"/>
	<path id="Shape-93" class="st0" d="M298.3,1187.6c0-11.4-9.2-20.6-20.6-20.6c-11.4,0-20.6,9.2-20.6,20.6c0,11.4,9.2,20.6,20.6,20.6
		C289.1,1208.2,298.4,1199,298.3,1187.6z"/>
	<path id="Shape-94" class="st1" d="M484.5,1186.4c0-11.4-9.2-20.6-20.6-20.6c-11.4,0-20.6,9.2-20.6,20.6c0,11.4,9.2,20.6,20.6,20.6
		C475.3,1207.1,484.5,1197.8,484.5,1186.4z"/>
	<path id="Shape-95" class="st0" d="M412.7,97.8c0-11.4-9.2-20.6-20.6-20.6s-20.6,9.2-20.6,20.6c0,11.4,9.2,20.6,20.6,20.6
		C403.4,118.5,412.7,109.2,412.7,97.8z"/>
	<path id="Shape-96" class="st0" d="M468,97.8c0-11.4-9.2-20.6-20.6-20.6s-20.6,9.2-20.6,20.6c0,11.4,9.2,20.6,20.6,20.6
		C458.8,118.5,468,109.2,468,97.8z"/>
	<path id="Shape-97" class="st2" d="M213,189.7c-19,0-34.4-15.4-34.4-34.4c0-19,15.4-34.4,34.4-34.4c11.4-0.1,20.6-9.4,20.5-20.8
		c-0.1-11.3-9.2-20.4-20.5-20.5c-41.8,0.2-75.6,34.2-75.5,76c0.2,41.6,33.8,75.3,75.5,75.5c11.4-0.1,20.6-9.4,20.5-20.8
		C233.4,198.9,224.3,189.8,213,189.7L213,189.7z"/>
	<path id="Shape-98" class="st0" d="M110.4,397.8c52.4,0,94.9,42.5,94.9,94.9l0,0c-0.1,11.4,9.1,20.7,20.5,20.8
		c11.4,0.1,20.7-9.1,20.8-20.5c0-0.1,0-0.2,0-0.3c0-75.2-60.9-136.1-136.1-136.1c-11.4,0.1-20.6,9.4-20.5,20.8
		C90,388.6,99.1,397.8,110.4,397.8z"/>
	<path id="Shape-99" class="st0" d="M113.9,513.4c0-11.4-9.2-20.6-20.6-20.6c-11.4,0-20.6,9.2-20.6,20.6c0,11.4,9.2,20.6,20.6,20.6
		C104.7,534,113.9,524.8,113.9,513.4z"/>
	<path id="Shape-100" class="st1" d="M1014.3,904.1c0,11.4-9.2,20.6-20.6,20.6c-11.4,0-20.6-9.2-20.6-20.6
		c0-11.4,9.2-20.6,20.6-20.6C1005,883.5,1014.3,892.7,1014.3,904.1z"/>
	<path id="Shape-101" class="st1" d="M1069,904.1c0,11.4-9.2,20.6-20.6,20.6c-11.4,0-20.6-9.2-20.6-20.6c0-11.4,9.2-20.6,20.6-20.6
		C1059.8,883.5,1069,892.7,1069,904.1z"/>
	<path id="Shape-102" class="st0" d="M732,772.1c0,11.4-9.2,20.6-20.6,20.6c-11.4,0-20.6-9.2-20.6-20.6c0-11.4,9.2-20.6,20.6-20.6
		C722.8,751.5,732,760.7,732,772.1z"/>
	<path id="Shape-103" class="st0" d="M733.2,1019.6c0,11.4-9.2,20.6-20.6,20.6c-11.4,0-20.6-9.2-20.6-20.6
		c0-11.4,9.2-20.6,20.6-20.6C724,999,733.2,1008.3,733.2,1019.6z"/>
	<path id="Shape-104" class="st2" d="M963.1,205.1c-23.6,0.2-42.6,19.5-42.4,43.1c0.2,23.3,19.1,42.2,42.4,42.4
		c84.7,0,153.1,69,153.1,153.8c0,11.4-9.3,20.7-20.7,20.6c-11.4,0-20.6-9.2-20.6-20.6c0-62.3-50.2-112.5-111.8-112.5
		c-46.4,0-83.7-37.7-83.7-84s37.4-84,83.7-84c11.4-0.1,20.7,9.1,20.8,20.5s-9.1,20.7-20.5,20.8C963.2,205.1,963.2,205.1,963.1,205.1
		z"/>
	<path id="Shape-105" class="st0" d="M1074.4,444.4c0,62.6-50.1,113-111.4,113c-11.4,0-20.7,9.3-20.7,20.7
		c0,11.4,9.3,20.7,20.7,20.7c84.5,0,152.6-69.3,152.6-154.4c0.1-11.4-9.1-20.7-20.5-20.8c-11.4-0.1-20.7,9.1-20.8,20.5
		C1074.4,444.3,1074.4,444.4,1074.4,444.4L1074.4,444.4z"/>
	<path id="Shape-106" class="st1" d="M1095,465c-11.4,0-20.6-9.2-20.6-20.6c0-11.4,9.2-20.6,20.6-20.6s20.6,9.2,20.6,20.6
		c0,0,0,0,0,0C1115.6,455.8,1106.4,465,1095,465z"/>
	<path id="Shape-107" class="st0" d="M814.5,319.4c11.4,0,20.6,9.3,20.6,20.7v89.5c0.1,11.4-9.1,20.7-20.5,20.8
		c-11.4,0.1-20.7-9.1-20.8-20.5c0-0.1,0-0.2,0-0.3v-89.5C793.9,328.7,803.1,319.5,814.5,319.4z"/>
	<path id="Shape-108" class="st0" d="M476.3,203.4c0,76.8-62.2,139-139,139c0,0,0,0,0,0c-11.4,0-20.6,9.2-20.6,20.6
		s9.2,20.6,20.6,20.6c99.6,0,180.3-80.7,180.3-180.3c0-11.4-9.2-20.6-20.6-20.7C485.5,182.7,476.3,191.9,476.3,203.4
		C476.2,203.4,476.2,203.4,476.3,203.4L476.3,203.4z"/>
	<path id="Shape-109" class="st3" d="M1155.7,247.5c0,11.4-9.3,20.6-20.7,20.6H960.1c-11.4,0-20.6-9.2-20.6-20.6
		c0-11.4,9.2-20.6,20.6-20.6c0,0,0,0,0,0H1135C1146.4,226.9,1155.7,236.1,1155.7,247.5z"/>
	<path id="Shape-110" class="st0" d="M517.5,203.3c0-11.4-9.2-20.6-20.6-20.6s-20.6,9.2-20.6,20.6c0,11.4,9.2,20.6,20.6,20.6
		C508.3,224,517.5,214.7,517.5,203.3z"/>
	<path id="Shape-111" class="st1" d="M1114.3,203.2c-8.1,8.1-21.1,8.1-29.2,0c-8.1-8.1-8.1-21.1,0-29.2c8.1-8.1,21.1-8.1,29.2,0
		C1122.3,182.1,1122.3,195.1,1114.3,203.2C1114.3,203.2,1114.3,203.2,1114.3,203.2z"/>
	<path id="Shape-112" class="st1" d="M974,141.3c-8.1,8.1-21.1,8.1-29.2,0c-8.1-8.1-8.1-21.1,0-29.2c8.1-8.1,21.1-8.1,29.2,0
		C982.1,120.2,982.1,133.2,974,141.3C974,141.3,974,141.3,974,141.3z"/>
	<path id="Shape-113" class="st1" d="M13.8,649.5c0-11.4,9.2-20.6,20.6-20.6c0,0,0,0,0,0h66c11.4,0.1,20.6,9.4,20.5,20.8
		c-0.1,11.3-9.2,20.4-20.5,20.5h-66C23,670.1,13.8,660.9,13.8,649.5z"/>
	<path id="Shape-114" class="st0" d="M670.1,1204.1c-11.4,0-20.6-9.2-20.6-20.6c0,0,0,0,0,0v-59c0.1-11.4,9.4-20.6,20.8-20.5
		c11.3,0.1,20.4,9.2,20.5,20.5v59C690.8,1194.9,681.5,1204.1,670.1,1204.1C670.1,1204.1,670.1,1204.1,670.1,1204.1z"/>
	<path id="Shape-115" class="st2" d="M769.1,1187.6c0-11.4,9.2-20.6,20.6-20.6h163.8c11.4-0.1,20.7,9.1,20.8,20.5
		c0.1,11.4-9.1,20.7-20.5,20.8c-0.1,0-0.2,0-0.3,0H789.8C778.4,1208.3,769.1,1199,769.1,1187.6z"/>
	<path id="Shape-116" class="st0" d="M13.8,40.1c0-11.4,9.2-20.6,20.6-20.6c0,0,0,0,0,0h94.9c11.4,0.1,20.6,9.4,20.5,20.8
		c-0.1,11.3-9.2,20.4-20.5,20.5H34.4C23,60.7,13.8,51.5,13.8,40.1z"/>
	<path id="Shape-117" class="st0" d="M958.9,1208.3c-11.4,0-20.6-9.2-20.6-20.6c0-11.4,9.2-20.6,20.6-20.6
		c11.4,0,20.6,9.2,20.6,20.6c0,0,0,0,0,0C979.5,1199,970.3,1208.2,958.9,1208.3z"/>
	<path id="Shape-118" class="st0" d="M898.8,150.2c-34.9,0-63.1,28.3-63.1,63.2c0,0,0,0,0,0c0,11.4-9.2,20.6-20.6,20.6
		s-20.6-9.2-20.6-20.6c0-57.6,46.7-104.3,104.3-104.4c0,0,0,0,0,0c11.4,0.2,20.4,9.6,20.2,21C918.8,141.1,909.9,150,898.8,150.2z"/>
	<path id="Shape-119" class="st1" d="M800.5,198.8c8.1-8.1,21.1-8.1,29.2,0c8.1,8.1,8.1,21.1,0,29.2c-8.1,8.1-21.1,8.1-29.2,0
		C792.5,219.9,792.4,206.8,800.5,198.8C800.5,198.8,800.5,198.8,800.5,198.8z"/>
	<path id="Shape-120" class="st0" d="M1209.3,802.2c72.9,0,132-59.1,132-132c0,0,0,0,0,0c-0.1-11.4,9.1-20.7,20.5-20.8
		c11.4-0.1,20.7,9.1,20.8,20.5c0,0.1,0,0.2,0,0.3c0,95.7-77.6,173.3-173.2,173.3c-11.4-0.1-20.6-9.4-20.5-20.8
		C1188.9,811.4,1198,802.2,1209.3,802.2L1209.3,802.2z"/>
	<path id="Shape-121" class="st1" d="M1376.5,684.7c-8.1,8.1-21.1,8.1-29.2,0s-8.1-21.1,0-29.2c8.1-8.1,21.1-8.1,29.2,0
		C1384.5,663.6,1384.5,676.7,1376.5,684.7C1376.5,684.7,1376.5,684.7,1376.5,684.7z"/>
	<path id="Shape-122" class="st1" d="M1434.8,684.7c-8.1,8.1-21.1,8-29.2,0c-8.1-8.1-8-21.1,0-29.2c8.1-8,21.1-8,29.2,0
		C1442.9,663.6,1442.9,676.6,1434.8,684.7C1434.8,684.7,1434.8,684.7,1434.8,684.7z"/>
	<path id="Shape-123" class="st2" d="M1572.8,762.1c-98.9,0-179,80.2-179,179.1c0,11.4-9.2,20.7-20.7,20.7
		c-11.4,0-20.7-9.2-20.7-20.7c0-121.7,98.6-220.4,220.3-220.4c11.4,0,20.7,9.3,20.7,20.7C1593.5,752.9,1584.2,762.1,1572.8,762.1z"
		/>
	<path id="Shape-124" class="st0" d="M1155.7,247.4c0.1,11.4-9.1,20.7-20.5,20.7s-20.7-9.1-20.7-20.5c-0.1-11.4,9.1-20.7,20.5-20.7
		C1146.3,226.9,1155.6,236,1155.7,247.4C1155.7,247.4,1155.7,247.4,1155.7,247.4z"/>
	<path id="Shape-125" class="st0" d="M1344.2,38.2c0.1,11.4-9.1,20.7-20.5,20.7c-11.4,0.1-20.7-9.1-20.7-20.5
		c-0.1-11.4,9.1-20.7,20.5-20.7C1334.9,17.6,1344.2,26.8,1344.2,38.2C1344.2,38.2,1344.2,38.2,1344.2,38.2z"/>
	<path id="Shape-126" class="st0" d="M1155.7,40c0.1,11.4-9.1,20.7-20.5,20.7c-11.4,0.1-20.7-9.1-20.7-20.5
		c-0.1-11.4,9.1-20.7,20.5-20.7C1146.3,19.4,1155.6,28.6,1155.7,40C1155.7,40,1155.7,40,1155.7,40z"/>
	<path id="Shape-127" class="st0" d="M1155.7,94.8c0.1,11.4-9.1,20.7-20.5,20.7s-20.7-9.1-20.7-20.5c-0.1-11.4,9.1-20.7,20.5-20.7
		C1146.3,74.2,1155.6,83.4,1155.7,94.8C1155.7,94.8,1155.7,94.8,1155.7,94.8z"/>
	<path id="Shape-128" class="st3" d="M1562.2,690.8h-81.9c-11.4,0.1-20.7-9.1-20.8-20.5c-0.1-11.4,9.1-20.7,20.5-20.8
		c0.1,0,0.2,0,0.3,0h81.9c11.4-0.1,20.7,9.1,20.8,20.5c0.1,11.4-9.1,20.7-20.5,20.8C1562.4,690.8,1562.3,690.8,1562.2,690.8z"/>
	<path id="Shape-129" class="st0" d="M1593.5,741.5c0,11.4-9.2,20.6-20.6,20.6c-11.4,0-20.6-9.2-20.6-20.6
		c0-11.4,9.2-20.6,20.6-20.6C1584.2,720.8,1593.5,730.1,1593.5,741.5z"/>
	<path id="Shape-130" class="st1" d="M1357.7,192.4c0-19-15.4-34.4-34.4-34.4c-19,0-34.4,15.4-34.4,34.4c0,19,15.4,34.4,34.4,34.4
		c11.4,0,20.7,9.2,20.7,20.7c0,11.4-9.2,20.7-20.7,20.7c-41.8,0-75.7-33.9-75.8-75.7s33.9-75.7,75.7-75.8
		c41.8,0,75.7,33.9,75.8,75.7c0,0,0,0,0,0c0,11.4-9.2,20.6-20.7,20.6S1357.7,203.8,1357.7,192.4L1357.7,192.4L1357.7,192.4z"/>
	<path id="Shape-131" class="st3" d="M1463.9,50.2c-19,0-34.4,15.4-34.4,34.4c0,19,15.4,34.4,34.4,34.4c11.4,0.1,20.6,9.4,20.5,20.8
		c-0.1,11.3-9.2,20.4-20.5,20.5c-41.8,0-75.7-33.9-75.7-75.7c0-41.8,33.9-75.7,75.7-75.7c11.4,0.1,20.6,9.4,20.5,20.8
		C1484.3,40.9,1475.2,50.1,1463.9,50.2z"/>
	<path id="Shape-132" class="st0" d="M1345.4,247.5c0,11.4-9.2,20.6-20.6,20.6s-20.6-9.2-20.6-20.6c0-11.4,9.2-20.6,20.6-20.6
		C1336.2,226.9,1345.4,236.2,1345.4,247.5z"/>
	<path id="Shape-133" class="st1" d="M1485.6,139.7c0,11.4-9.2,20.6-20.6,20.6s-20.6-9.2-20.6-20.6c0-11.4,9.2-20.6,20.6-20.6
		C1476.4,119.1,1485.6,128.3,1485.6,139.7z"/>
	<path id="Shape-134" class="st1" d="M1400.8,247.5c0,11.4-9.2,20.6-20.6,20.6s-20.6-9.2-20.6-20.6c0-11.4,9.2-20.6,20.6-20.6
		C1391.5,226.9,1400.8,236.2,1400.8,247.5z"/>
	<path id="Shape-135" class="st1" d="M1455.6,247.5c0,11.4-9.2,20.6-20.6,20.6s-20.6-9.2-20.6-20.6c0-11.4,9.2-20.6,20.6-20.6
		C1446.3,226.9,1455.6,236.2,1455.6,247.5z"/>
	<path id="Shape-136" class="st0" d="M1487.4,83.7c0,11.4-9.2,20.6-20.6,20.6c-11.4,0-20.6-9.2-20.6-20.6c0-11.4,9.2-20.6,20.6-20.6
		C1478.2,63.1,1487.4,72.3,1487.4,83.7z"/>
	<path id="Shape-137" class="st0" d="M1542.2,83.7c0,11.4-9.2,20.6-20.6,20.6c-11.4,0-20.6-9.2-20.6-20.6c0-11.4,9.2-20.6,20.6-20.6
		C1533,63.1,1542.2,72.3,1542.2,83.7z"/>
	<path id="Shape-138" class="st0" d="M1597.6,83.7c0,11.4-9.2,20.6-20.6,20.6c-11.4,0-20.6-9.2-20.6-20.6c0-11.4,9.2-20.6,20.6-20.6
		C1588.3,63.1,1597.6,72.3,1597.6,83.7z"/>
	<path id="Shape-139" class="st1" d="M1522.2,451.5c-11.4,0-20.6-9.2-20.6-20.6c0-11.4,9.2-20.6,20.6-20.6s20.6,9.2,20.6,20.6
		c0,0,0,0,0,0C1542.8,442.2,1533.5,451.5,1522.2,451.5z"/>
</g>
</svg>
